<svg class="svg-icon" style="color:#7928CA ; width: 1.142578125em; height: 1em;vertical-align: middle;fill: currentColor;overflow: hidden;" viewBox="0 0 1170 1024" version="1.1" xmlns="http://www.w3.org/2000/svg"><path d="M1097.142857 438.857143q30.285714 0 51.714286 21.428571T1170.285714 512t-21.428571 51.714286-51.714286 21.428571h-8.571428l-65.714286 378.285714q-4.571429 26.285714-25.142857 43.428572t-46.857143 17.142857H219.428571q-26.285714 0-46.857142-17.142857t-25.142858-43.428572L81.714286 585.142857H73.142857q-30.285714 0-51.714286-21.428571T0 512t21.428571-51.714286T73.142857 438.857143h1024zM277.142857 896q14.857143-1.142857 24.857143-12.857143T310.857143 856.571429l-18.285714-237.714286q-1.142857-14.857143-12.857143-24.857143T253.142857 585.142857t-24.857143 12.857143T219.428571 624.571429l18.285715 237.714285q1.142857 14.285714 11.714285 24t24.857143 9.714286h2.857143z m234.857143-36.571429v-237.714285q0-14.857143-10.857143-25.714286t-25.714286-10.857143-25.714285 10.857143-10.857143 25.714286v237.714285q0 14.857143 10.857143 25.714286t25.714285 10.857143 25.714286-10.857143 10.857143-25.714286z m219.428571 0v-237.714285q0-14.857143-10.857142-25.714286t-25.714286-10.857143-25.714286 10.857143-10.857143 25.714286v237.714285q0 14.857143 10.857143 25.714286t25.714286 10.857143 25.714286-10.857143 10.857142-25.714286z m201.142858 2.857143l18.285714-237.714285q1.142857-14.857143-8.857143-26.571429T917.142857 585.142857t-26.571428 8.857143-12.857143 24.857143l-18.285715 237.714286q-1.142857 14.857143 8.857143 26.571428t24.857143 12.857143h2.857143q14.285714 0 24.857143-9.714286t11.714286-24zM272 166.857143l-53.142857 235.428571H143.428571l57.714286-252q10.857143-50.285714 50.857143-82T343.428571 36.571429h95.428572q0-14.857143 10.857143-25.714286t25.714285-10.857143h219.428572q14.857143 0 25.714286 10.857143t10.857142 25.714286h95.428572q51.428571 0 91.428571 31.714285t50.857143 82l57.714286 252h-75.428572l-53.142857-235.428571q-6.285714-25.142857-26-41.142857t-45.428571-16h-95.428572q0 14.857143-10.857142 25.714285t-25.714286 10.857143H475.428571q-14.857143 0-25.714285-10.857143t-10.857143-25.714285H343.428571q-25.714286 0-45.428571 16T272 166.857143z"  /></svg>